<svg xmlns="http://www.w3.org/2000/svg" width="256" height="256" viewBox="0 0 100 100"><rect width="100" height="100" rx="20" fill="#7d6ee7"></rect><path fill="#fff" d="M43.12 28.85L28.27 28.85L28.27 77.18Q27.82 77.36 26.87 77.58Q25.93 77.81 24.93 77.81L24.93 77.81Q20.98 77.81 20.98 74.48L20.98 74.48L20.98 28.85L4.15 28.85Q3.88 28.40 3.61 27.63Q3.34 26.87 3.34 25.88L3.34 25.88Q3.34 24.35 4.06 23.50Q4.78 22.64 6.13 22.64L6.13 22.64L45.09 22.64Q45.37 23.09 45.63 23.86Q45.91 24.62 45.91 25.52L45.91 25.52Q45.91 27.05 45.19 27.95Q44.46 28.85 43.12 28.85L43.12 28.85ZM96.13 28.67L96.13 28.67Q96.13 29.93 95.36 30.83Q94.59 31.73 93.60 32.18L93.60 32.18Q91.27 30.56 88.12 29.12Q84.97 27.68 79.92 27.68L79.92 27.68Q75.78 27.68 72.28 29.12Q68.77 30.56 66.16 33.35Q63.55 36.14 62.06 40.37Q60.58 44.60 60.58 50.09L60.58 50.09Q60.58 55.67 62.02 59.81Q63.45 63.95 66.02 66.74Q68.59 69.53 72.19 70.92Q75.78 72.32 80.19 72.32L80.19 72.32Q84.88 72.32 88.34 71.02Q91.81 69.71 94.14 67.91L94.14 67.91Q95.05 68.27 95.85 69.22Q96.66 70.16 96.66 71.42L96.66 71.42Q96.66 73.31 94.50 74.84L94.50 74.84Q92.44 76.28 88.84 77.41Q85.23 78.53 79.66 78.53L79.66 78.53Q73.98 78.53 69.13 76.73Q64.27 74.93 60.71 71.38Q57.16 67.82 55.09 62.51Q53.02 57.20 53.02 50.09L53.02 50.09Q53.02 42.98 55.13 37.63Q57.25 32.27 60.84 28.67Q64.44 25.07 69.26 23.27Q74.08 21.47 79.39 21.47L79.39 21.47Q83.08 21.47 86.18 22.10Q89.28 22.73 91.49 23.77Q93.69 24.80 94.91 26.11Q96.13 27.41 96.13 28.67Z"></path></svg>