<?xml version="1.0" standalone="no"?>
<svg xmlns:xlink="http://www.w3.org/1999/xlink" id="wave" style="transform:rotate(180deg); transition: 0.3s" viewBox="0 0 1440 480" version="1.1" xmlns="http://www.w3.org/2000/svg"><defs><linearGradient id="sw-gradient-0" x1="0" x2="0" y1="1" y2="0"><stop stop-color="rgba(11.949, 34.626, 233.726, 1)" offset="0%"/><stop stop-color="rgba(35.646, 34.938, 32.415, 1)" offset="100%"/></linearGradient></defs><path style="transform:translate(0, 0px); opacity:1" fill="url(#sw-gradient-0)" d="M0,240L10,208C20,176,40,112,60,128C80,144,100,240,120,240C140,240,160,144,180,152C200,160,220,272,240,336C260,400,280,416,300,368C320,320,340,208,360,176C380,144,400,192,420,224C440,256,460,272,480,288C500,304,520,320,540,344C560,368,580,400,600,352C620,304,640,176,660,128C680,80,700,112,720,112C740,112,760,80,780,120C800,160,820,272,840,264C860,256,880,128,900,120C920,112,940,224,960,272C980,320,1000,304,1020,280C1040,256,1060,224,1080,248C1100,272,1120,352,1140,368C1160,384,1180,336,1200,312C1220,288,1240,288,1260,304C1280,320,1300,352,1320,328C1340,304,1360,224,1380,224C1400,224,1420,304,1430,344L1440,384L1440,480L1430,480C1420,480,1400,480,1380,480C1360,480,1340,480,1320,480C1300,480,1280,480,1260,480C1240,480,1220,480,1200,480C1180,480,1160,480,1140,480C1120,480,1100,480,1080,480C1060,480,1040,480,1020,480C1000,480,980,480,960,480C940,480,920,480,900,480C880,480,860,480,840,480C820,480,800,480,780,480C760,480,740,480,720,480C700,480,680,480,660,480C640,480,620,480,600,480C580,480,560,480,540,480C520,480,500,480,480,480C460,480,440,480,420,480C400,480,380,480,360,480C340,480,320,480,300,480C280,480,260,480,240,480C220,480,200,480,180,480C160,480,140,480,120,480C100,480,80,480,60,480C40,480,20,480,10,480L0,480Z"/></svg>